<?xml version="1.0" encoding="UTF-8" standalone="no"?>
<svg
   xmlns:dc="http://purl.org/dc/elements/1.1/"
   xmlns:cc="http://creativecommons.org/ns#"
   xmlns:rdf="http://www.w3.org/1999/02/22-rdf-syntax-ns#"
   xmlns:svg="http://www.w3.org/2000/svg"
   xmlns="http://www.w3.org/2000/svg"
   xmlns:sodipodi="http://sodipodi.sourceforge.net/DTD/sodipodi-0.dtd"
   xmlns:inkscape="http://www.inkscape.org/namespaces/inkscape"
   width="68.791664mm"
   height="39.6875mm"
   viewBox="0 0 68.791664 39.6875"
   version="1.1"
   id="svg8"
   inkscape:version="1.0.1 (0767f8302a, 2020-10-17)"
   sodipodi:docname="logo.svg">
  <defs
     id="defs2" />
  <sodipodi:namedview
     id="base"
     pagecolor="#ffffff"
     bordercolor="#666666"
     borderopacity="1.0"
     inkscape:pageopacity="0.0"
     inkscape:pageshadow="2"
     inkscape:zoom="1"
     inkscape:cx="145.48435"
     inkscape:cy="152.47217"
     inkscape:document-units="mm"
     inkscape:current-layer="layer1"
     inkscape:document-rotation="0"
     showgrid="true"
     inkscape:snap-bbox="true"
     inkscape:bbox-paths="true"
     inkscape:bbox-nodes="true"
     inkscape:snap-bbox-edge-midpoints="true"
     inkscape:snap-bbox-midpoints="true"
     inkscape:snap-object-midpoints="true"
     inkscape:snap-grids="false"
     inkscape:window-width="1920"
     inkscape:window-height="1056"
     inkscape:window-x="1920"
     inkscape:window-y="569"
     inkscape:window-maximized="0">
    <inkscape:grid
       type="xygrid"
       id="grid837"
       originx="-74.083329"
       originy="-47.624999" />
  </sodipodi:namedview>
  <metadata
     id="metadata5">
    <rdf:RDF>
      <cc:Work
         rdf:about="">
        <dc:format>image/svg+xml</dc:format>
        <dc:type
           rdf:resource="http://purl.org/dc/dcmitype/StillImage" />
        <dc:title></dc:title>
      </cc:Work>
    </rdf:RDF>
  </metadata>
  <g
     inkscape:label="Layer 1"
     inkscape:groupmode="layer"
     id="layer1"
     transform="translate(-74.083332,-47.624999)">
    <path
       id="path833"
       style="fill:#000000;fill-opacity:1;stroke:#000000;stroke-width:0;stroke-miterlimit:4;stroke-dasharray:none"
       inkscape:transform-center-x="-2.6458331"
       d="m 405,180 -30,17.5 -30,17.5 -30,17.5 -30,17.5 30,17.5 30,17.5 30,-17.5 30,-17.5 v -35 z m 10,0 v 35 35 l 30,17.5 30,17.5 30,-17.5 L 535,250 505,232.5 475,215 445,197.5 Z m -135,80 v 35 35 l 30,-17.5 30,-17.5 -30,-17.5 z m 130,0 -30,17.5 -23.92773,13.95898 L 410,322.91602 463.92773,291.45898 440,277.5 Z m 130,0 -30,17.5 -30,17.5 30,17.5 30,17.5 v -35 z"
       transform="scale(0.26458333)" />
  </g>
</svg>
